#!OML:ASF H:\Terrain\Patient Classification 1\Walking\liu\liu.ASF
:FULLY-SPECIFIED
:DEGREES
162
root 8.243050 16.573400 -14.155800 7.992930 9.798570 -0.533006
lowerback -5.397535 -2.428426 -1.020428
upperback -2.195314 -3.232108 3.944831
thorax 1.023515 -1.604306 4.451810
lowerneck -20.749302 -7.682653 -16.540041
upperneck 16.539711 -9.220266 16.270321
head 10.044144 -3.717219 7.100225
rclavicle 0.000000 -0.000000
rhumerus -50.040871 8.979906 -89.442871
rradius 36.381729
rwrist -19.374960
rhand -30.335691 -32.675060
rfingers 7.837522
rthumb -1.076092 -65.650307
lclavicle 0.000000 -0.000000
lhumerus -48.248310 -11.242220 105.425652
lradius 26.325090
lwrist -0.113699
lhand -1.388211 -19.631809
lfingers 7.837522
lthumb 26.819101 11.683981
rfemur -33.170719 1.576685 25.472261
rtibia 35.068001
rfoot -13.310220 -0.177496
rtoes -14.889930
lfemur -4.601993 8.796117 -15.344340
ltibia 57.906311
lfoot 2.736525 13.827660
ltoes -17.750700
163
root 8.229260 16.610701 -14.033900 8.168140 9.686500 -0.720423
lowerback -5.525146 -2.236476 -0.805637
upperback -2.189209 -2.986929 3.948087
thorax 1.072189 -1.482316 4.344681
lowerneck -20.459560 -7.729931 -16.617149
upperneck 16.140961 -9.319806 16.539381
head 9.892279 -3.755774 7.188082
rclavicle 0.000000 -0.000000
rhumerus -49.729462 9.516925 -89.677834
rradius 36.601620
rwrist -19.939150
rhand -30.873041 -31.660421
rfingers 7.837522
rthumb -1.595066 -64.632698
lclavicle 0.000000 -0.000000
lhumerus -48.902153 -12.254770 106.042747
lradius 27.375811
lwrist 1.491468
lhand -0.499810 -19.616959
lfingers 7.837522
lthumb 27.670610 11.581901
rfemur -32.417442 1.356608 25.899611
rtibia 34.148182
rfoot -13.648141 0.288540
rtoes -16.440601
lfemur -6.457209 8.877506 -15.489211
ltibia 59.677750
lfoot 2.761143 14.510650
ltoes -11.588941
164
root 8.224850 16.642700 -13.904400 7.930250 9.521380 -0.974710
lowerback -5.434572 -2.017466 -0.371784
upperback -1.940092 -2.719244 3.841101
thorax 1.235333 -1.352934 4.003626
lowerneck -20.595190 -7.815632 -16.125780
upperneck 16.019852 -9.501272 16.333019
head 9.871928 -3.826185 6.995010
rclavicle 0.000000 -0.000000
rhumerus -49.495380 9.915170 -89.835464
rradius 37.219051
rwrist -20.406210
rhand -31.102390 -30.243071
rfingers 7.837522
rthumb -1.816529 -63.213810
lclavicle 0.000000 -0.000000
lhumerus -49.450829 -13.370940 106.455696
lradius 28.459421
lwrist 3.468432
lhand -0.685438 -20.117571
lfingers 7.837522
lthumb 27.492741 11.106041
rfemur -31.178400 1.325500 26.337301
rtibia 33.340229
rfoot -14.091660 0.681052
rtoes -16.465240
lfemur -7.707227 8.947268 -15.565220
ltibia 61.127110
lfoot 5.772613 14.963410
ltoes 2.450294
165
root 8.219640 16.669600 -13.775200 7.575640 9.277810 -1.093180
lowerback -5.038429 -1.773442 -0.222126
upperback -1.811953 -2.397791 3.836569
thorax 1.118920 -1.192356 3.943269
lowerneck -20.508841 -7.931803 -16.026340
upperneck 16.050760 -9.670893 16.161310
head 9.880222 -3.919014 6.889905
rclavicle -0.000000 0.000000
rhumerus -49.679741 10.584948 -89.801582
rradius 38.415302
rwrist -20.918261
rhand -31.150351 -29.309389
rfingers 7.837522
rthumb -1.862872 -62.279694
lclavicle -0.000000 0.000000
lhumerus -50.009190 -13.994201 106.892944
lradius 29.301689
lwrist 4.786782
lhand -0.911627 -20.502460
lfingers 7.837522
lthumb 27.275932 10.751258
rfemur -29.832771 1.409364 26.606030
rtibia 32.624901
rfoot -14.439040 0.933056
rtoes -16.194860
lfemur -8.827048 8.996890 -15.784121
ltibia 62.361530
lfoot 1.910502 14.469511
ltoes -14.789061
166
root 8.206510 16.694599 -13.653200 7.562010 9.027810 -0.992849
lowerback -4.825491 -1.564464 -0.443815
upperback -1.849628 -2.105675 3.876400
thorax 0.950859 -1.044016 4.132293
lowerneck -20.434481 -7.995328 -16.380100
upperneck 16.190460 -9.711109 16.276590
head 9.944044 -3.949748 6.990181
rclavicle -0.000000 -0.000000
rhumerus -49.768402 11.300410 -89.692795
rradius 39.455242
rwrist -21.258821
rhand -31.503342 -27.748051
rfingers 7.837522
rthumb -2.203828 -60.715382
lclavicle -0.000000 -0.000000
lhumerus -50.482853 -14.475780 107.416649
lradius 29.977640
lwrist 5.808935
lhand -1.021504 -20.838289
lfingers 7.837522
lthumb 27.170660 10.429804
rfemur -28.934071 1.536282 26.626379
rtibia 31.960831
rfoot -14.685220 1.091389
rtoes -16.915691
lfemur -10.364223 9.017317 -16.288471
ltibia 63.486610
lfoot 0.093609 13.973960
ltoes -17.842220
167
root 8.196030 16.715099 -13.533600 7.711250 8.787230 -1.032170
lowerback -4.963332 -1.399772 -0.409729
upperback -1.812217 -1.890471 3.879997
thorax 1.050595 -0.937499 4.125055
lowerneck -20.546570 -8.005118 -16.551590
upperneck 16.135241 -9.695906 16.472500
head 9.962403 -3.929816 7.091128
rclavicle -0.000000 0.000000
rhumerus -49.310360 12.007490 -89.787941
rradius 39.932861
rwrist -21.539101
rhand -32.237701 -26.676870
rfingers 7.837522
rthumb -2.913053 -59.636501
lclavicle -0.000000 0.000000
lhumerus -50.746632 -14.560480 107.497498
lradius 30.655901
lwrist 6.566516
lhand -0.954586 -21.051689
lfingers 7.837522
lthumb 27.234791 10.207648
rfemur -28.266590 1.669756 26.803370
rtibia 31.380909
rfoot -14.918311 1.302928
rtoes -17.073980
lfemur -12.083281 9.176046 -16.642780
ltibia 64.581879
lfoot -1.019465 13.507781
ltoes -14.171410
168
root 8.185570 16.733000 -13.415500 7.844470 8.657800 -1.415260
lowerback -5.130719 -1.230020 -0.000853
upperback -1.770560 -1.686454 3.942059
thorax 1.164064 -0.836693 3.966226
lowerneck -20.500591 -8.026503 -16.424541
upperneck 15.850890 -9.759035 16.582500
head 9.869144 -3.944809 7.092636
rclavicle -0.000000 -0.000000
rhumerus -48.590633 12.399860 -89.796745
rradius 40.144722
rwrist -21.753050
rhand -32.614231 -26.977280
rfingers 7.837522
rthumb -3.276647 -59.932072
lclavicle -0.000000 -0.000000
lhumerus -51.031860 -15.078251 107.656235
lradius 31.443941
lwrist 7.687306
lhand -0.903645 -20.919029
lfingers 7.837522
lthumb 27.283632 10.333598
rfemur -27.682381 1.870077 27.380102
rtibia 30.901310
rfoot -15.147880 1.355222
rtoes -16.435431
lfemur -13.884970 9.345501 -16.544991
ltibia 65.626221
lfoot -2.044229 12.817201
ltoes -12.638890
169
root 8.173040 16.745501 -13.302300 7.921230 8.519800 -1.653220
lowerback -5.173509 -1.036904 0.255233
upperback -1.685761 -1.443288 3.900226
thorax 1.253153 -0.716231 3.790655
lowerneck -20.291370 -8.060811 -16.275930
upperneck 15.561041 -9.880574 16.754869
head 9.757826 -3.987566 7.105846
rclavicle 0.000000 -0.000000
rhumerus -47.929314 12.430771 -89.708847
rradius 40.569210
rwrist -21.917170
rhand -32.668022 -27.596470
rfingers 7.837522
rthumb -3.328556 -60.550491
lclavicle 0.000000 -0.000000
lhumerus -51.223591 -15.669721 107.713211
lradius 32.240891
lwrist 9.077278
lhand -3.903636 -22.624802
lfingers 7.837522
lthumb 24.405922 8.996549
rfemur -27.069681 2.179804 27.742220
rtibia 30.463951
rfoot -15.380530 1.317107
rtoes -15.396811
lfemur -15.642880 9.367732 -16.648281
ltibia 66.512932
lfoot -2.933733 12.014530
ltoes -14.921391
170
root 8.166070 16.751699 -13.186300 7.899340 8.243240 -1.696230
lowerback -5.522924 -0.625525 0.349749
upperback -0.391735 -0.950718 3.894506
thorax 2.750407 -0.488906 3.754311
lowerneck -23.701590 -8.951272 -16.608789
upperneck 15.822290 -10.659352 17.151091
head 10.627177 -4.182299 7.148944
rclavicle -0.000000 -0.000000
rhumerus -44.943581 12.022341 -88.832367
rradius 40.865219
rwrist -22.180620
rhand -33.061932 -27.528271
rfingers 7.837522
rthumb -3.709057 -60.476685
lclavicle -0.000000 -0.000000
lhumerus -48.710751 -16.630239 107.495857
lradius 32.549770
lwrist 10.906346
lhand -12.624920 -28.625191
lfingers 7.837522
lthumb 16.016771 3.790666
rfemur -26.366011 2.242405 27.892260
rtibia 30.129770
rfoot -15.586451 1.649329
rtoes -15.135120
lfemur -17.124800 9.419586 -17.038561
ltibia 67.208679
lfoot -4.186875 11.566060
ltoes -14.849451
171
root 8.160190 16.757200 -13.065100 7.939580 7.972930 -1.768620
lowerback -5.027704 -0.459441 0.474288
upperback -1.734161 -0.677442 3.929893
thorax 1.074807 -0.331144 3.742431
lowerneck -19.386730 -8.379064 -17.402441
upperneck 15.083200 -10.256664 17.530041
head 9.602528 -4.197831 7.519919
rclavicle 0.000000 -0.000000
rhumerus -47.400433 12.664850 -89.055008
rradius 41.674931
rwrist -22.053350
rhand -32.703770 -26.725599
rfingers 7.837522
rthumb -3.363085 -59.679180
lclavicle 0.000000 -0.000000
lhumerus -51.903389 -16.125671 108.270248
lradius 33.496651
lwrist 12.251360
lhand -12.198670 -28.350519
lfingers 7.837522
lthumb 16.427511 4.035229
rfemur -25.853630 2.168584 28.123371
rtibia 29.997221
rfoot -15.698980 2.043624
rtoes -16.476789
lfemur -18.596821 9.465072 -17.393970
ltibia 67.739433
lfoot -5.312890 11.201631
ltoes -12.491051
172
root 8.154150 16.764099 -12.947900 8.002870 7.750310 -1.652480
lowerback -4.688618 -0.252430 0.371790
upperback -2.646149 -0.356842 3.917441
thorax -0.069741 -0.155669 3.806792
lowerneck -16.482620 -8.031419 -17.931761
upperneck 14.737800 -10.054385 17.612982
head 8.962768 -4.253117 7.702530
rclavicle 0.000000 -0.000000
rhumerus -48.869812 12.964490 -88.947876
rradius 42.319752
rwrist -21.860632
rhand -32.151791 -26.477882
rfingers 7.837522
rthumb -2.830036 -59.438499
lclavicle 0.000000 -0.000000
lhumerus -54.183472 -15.739461 108.814308
lradius 34.485001
lwrist 13.225631
lhand -12.564641 -28.221930
lfingers 7.837522
lthumb 16.074961 4.189702
rfemur -25.396250 2.351140 28.083660
rtibia 29.966202
rfoot -16.001261 2.101770
rtoes -17.084539
lfemur -20.114599 9.452279 -17.972240
ltibia 68.153580
lfoot -5.770963 10.726364
ltoes -9.772059
173
root 8.146170 16.764099 -12.837100 7.995780 7.622600 -1.475910
lowerback -4.484392 -0.105611 0.168906
upperback -2.835217 -0.142885 3.804691
thorax -0.390326 -0.043326 3.813755
lowerneck -15.682920 -7.915215 -18.041431
upperneck 14.619110 -10.014895 17.821871
head 8.790617 -4.258980 7.812167
rclavicle -0.000000 -0.000000
rhumerus -49.014130 13.143350 -88.868782
rradius 42.903740
rwrist -21.983391
rhand -33.188869 -27.545210
rfingers 7.837522
rthumb -3.831619 -60.491642
lclavicle -0.000000 -0.000000
lhumerus -54.675064 -15.291760 108.466377
lradius 35.079548
lwrist 14.009821
lhand -12.742290 -28.411020
lfingers 7.837522
lthumb 15.903801 4.012954
rfemur -24.855930 2.549734 27.983452
rtibia 29.977751
rfoot -16.646410 1.996885
rtoes -16.825161
lfemur -21.633480 9.455700 -18.564482
ltibia 68.499641
lfoot -5.958700 10.362099
ltoes -6.806140
